<svg width="729" height="680" viewBox="0 0 729 680" fill="none" xmlns="http://www.w3.org/2000/svg">
<path d="M554.805 161.594H551.069V59.24C551.069 43.5286 544.828 28.4607 533.718 17.351C522.609 6.24134 507.541 0 491.829 0H274.983C259.272 0 244.204 6.24134 233.094 17.351C221.985 28.4607 215.743 43.5286 215.743 59.24V620.761C215.743 636.472 221.985 651.54 233.094 662.65C244.204 673.76 259.272 680.001 274.983 680.001H491.833C507.545 680.001 522.613 673.76 533.722 662.65C544.832 651.54 551.073 636.472 551.073 620.761V234.451H554.805V161.594Z" fill="#35302D"/>
<path d="M538.995 55.276V624.728C538.994 636.64 534.261 648.064 525.839 656.488C517.417 664.912 505.994 669.646 494.082 669.651H272.776C260.859 669.652 249.43 664.919 241.002 656.494C232.574 648.068 227.838 636.64 227.835 624.723V55.276C227.839 43.3598 232.576 31.933 241.004 23.5087C249.431 15.0845 260.86 10.3526 272.776 10.354H299.621C298.303 13.5956 297.802 17.1113 298.161 20.5922C298.52 24.0731 299.728 27.4125 301.68 30.3169C303.632 33.2214 306.267 35.6019 309.354 37.2494C312.441 38.8968 315.886 39.7606 319.385 39.765H445.553C449.053 39.7602 452.498 38.8959 455.585 37.248C458.672 35.6001 461.307 33.219 463.259 30.3141C465.21 27.4092 466.418 24.0695 466.776 20.5884C467.135 17.1073 466.632 13.5915 465.313 10.35H494.069C505.981 10.3521 517.405 15.0844 525.829 23.5065C534.252 31.9286 538.987 43.3511 538.991 55.263L538.995 55.276Z" fill="#E6E6E6"/>
<path d="M515.415 639.926H251.415C249.162 639.923 247.001 639.027 245.408 637.433C243.814 635.84 242.918 633.679 242.915 631.426V76.4257C242.918 74.1721 243.814 72.0115 245.408 70.418C247.001 68.8245 249.162 67.9282 251.415 67.9257H515.415C517.669 67.9282 519.829 68.8245 521.423 70.418C523.016 72.0115 523.913 74.1721 523.915 76.4257V631.426C523.913 633.679 523.016 635.84 521.423 637.433C519.829 639.027 517.669 639.923 515.415 639.926V639.926Z" fill="white"/>
<path d="M382.415 255.307C422.586 255.307 455.151 222.742 455.151 182.571C455.151 142.4 422.586 109.835 382.415 109.835C342.244 109.835 309.679 142.4 309.679 182.571C309.679 222.742 342.244 255.307 382.415 255.307Z" fill="#E6E6E6"/>
<path d="M381.415 245.46C416.148 245.46 444.304 217.303 444.304 182.571C444.304 147.838 416.148 119.682 381.415 119.682C346.683 119.682 318.526 147.838 318.526 182.571C318.526 217.303 346.683 245.46 381.415 245.46Z" fill="white"/>
<path d="M382.815 146.901C375.724 146.901 368.791 149.004 362.895 152.944C356.998 156.883 352.402 162.483 349.689 169.035C346.975 175.587 346.265 182.797 347.648 189.752C349.032 196.707 352.447 203.096 357.461 208.111C362.476 213.125 368.865 216.54 375.82 217.924C382.775 219.307 389.985 218.597 396.537 215.883C403.089 213.17 408.689 208.574 412.628 202.677C416.568 196.781 418.671 189.848 418.671 182.757C418.671 173.247 414.894 164.127 408.169 157.403C401.445 150.678 392.325 146.901 382.815 146.901V146.901ZM382.815 157.658C384.943 157.658 387.023 158.289 388.792 159.471C390.56 160.653 391.939 162.333 392.753 164.298C393.568 166.264 393.781 168.427 393.366 170.513C392.95 172.6 391.926 174.517 390.422 176.021C388.917 177.525 387 178.55 384.914 178.965C382.827 179.38 380.664 179.167 378.699 178.353C376.733 177.539 375.053 176.16 373.871 174.391C372.689 172.622 372.058 170.542 372.058 168.415C372.058 167.002 372.337 165.603 372.877 164.298C373.418 162.993 374.21 161.807 375.209 160.808C376.208 159.809 377.394 159.017 378.699 158.477C380.004 157.936 381.403 157.658 382.815 157.658V157.658ZM382.815 209.442C378.566 209.422 374.385 208.367 370.636 206.366C366.887 204.365 363.683 201.48 361.301 197.961C361.473 190.79 375.643 186.842 382.815 186.842C389.987 186.842 404.156 190.79 404.329 197.961C401.945 201.478 398.741 204.362 394.992 206.363C391.244 208.364 387.064 209.421 382.815 209.445V209.442Z" fill="#E21919"/>
<path d="M442.443 279.75H316.605V289.208H442.443V279.75Z" fill="#E6E6E6"/>
<path d="M458.136 304.327H299.768V313.785H458.136V304.327Z" fill="#E6E6E6"/>
<path d="M494.962 374.923H271.868V598.017H494.962V374.923Z" fill="#E6E6E6"/>
<path d="M489.07 379.643H275.415V593.298H489.07V379.643Z" fill="white"/>
<path d="M402.583 400.267H319.415V406.518H402.583V400.267Z" fill="#E6E6E6"/>
<path d="M447.844 418.619H319.415V424.87H447.844V418.619Z" fill="#E21919"/>
<path d="M425.417 436.096H320.75V442.347H425.417V436.096Z" fill="#E6E6E6"/>
<path d="M380.518 455.272H319.415V461.523H380.518V455.272Z" fill="#E6E6E6"/>
<path d="M411.635 474.003H319.415V480.254H411.635V474.003Z" fill="#E21919"/>
<path d="M402.583 492.851H319.415V499.102H402.583V492.851Z" fill="#E6E6E6"/>
<path d="M447.844 511.202H319.415V517.453H447.844V511.202Z" fill="#E21919"/>
<path d="M425.417 528.679H320.75V534.93H425.417V528.679Z" fill="#E6E6E6"/>
<path d="M380.518 547.856H319.415V554.107H380.518V547.856Z" fill="#E6E6E6"/>
<path d="M411.635 566.587H319.415V572.838H411.635V566.587Z" fill="#E6E6E6"/>
<path d="M692.768 485.026C692.173 486.067 691.379 486.98 690.431 487.714C689.483 488.448 688.399 488.988 687.242 489.303C686.086 489.618 684.878 489.703 683.689 489.551C682.499 489.4 681.351 489.015 680.31 488.42C679.27 487.825 678.356 487.031 677.622 486.083C676.889 485.134 676.349 484.051 676.033 482.894C675.718 481.737 675.634 480.53 675.786 479.341C675.937 478.151 676.321 477.003 676.916 475.962C676.937 475.927 676.957 475.891 676.978 475.856C677.234 475.428 677.521 475.02 677.838 474.636L670.158 419.896L669.928 418.256L668.368 407.086L668.138 405.476L668.988 405.516L683.868 406.196L687.858 406.376L688.358 416.566L691.188 473.856C692.667 475.271 693.626 477.141 693.913 479.167C694.2 481.193 693.796 483.257 692.768 485.026V485.026Z" fill="#FFB8B8"/>
<path d="M669.972 418.752L688.867 417.019C689.847 416.926 690.751 416.45 691.381 415.693C692.011 414.937 692.317 413.963 692.231 412.982L688.731 373.69C688.564 371.816 688.029 369.994 687.158 368.326C686.286 366.659 685.094 365.18 683.651 363.973C682.208 362.767 680.541 361.856 678.746 361.293C676.95 360.731 675.062 360.527 673.188 360.695C671.314 360.862 669.492 361.397 667.824 362.268C666.157 363.14 664.678 364.332 663.471 365.775C662.265 367.218 661.354 368.885 660.791 370.68C660.229 372.476 660.025 374.364 660.193 376.238C660.217 376.508 660.249 376.778 660.288 377.047L665.954 415.587C666.084 416.47 666.527 417.277 667.202 417.861C667.877 418.445 668.74 418.767 669.632 418.768C669.746 418.77 669.859 418.765 669.972 418.752V418.752Z" fill="#FCCB1C"/>
<path d="M684.294 387.009C686.205 381.596 686.294 375.706 684.546 370.238C682.799 364.77 679.311 360.023 674.615 356.721C667.49 351.846 657.74 350.096 647.24 362.596C626.24 387.596 620.74 415.096 620.74 415.096L663.74 422.096C663.74 422.096 678.363 404.221 684.294 387.009Z" fill="#FCCB1C"/>
<path d="M614.747 668.615H602.487L596.655 621.327H614.749L614.747 668.615Z" fill="#FFB8B8"/>
<path d="M578.846 679.998H617.377V665.111H593.733C589.785 665.111 585.998 666.679 583.206 669.471C580.415 672.263 578.846 676.05 578.846 679.998V679.998Z" fill="#3A0000"/>
<path d="M715.541 657.922L703.901 661.77L683.521 618.702L700.701 613.023L715.541 657.922Z" fill="#FFB8B8"/>
<path d="M685.024 679.998L721.609 667.906L716.937 653.771L694.487 661.191C692.631 661.805 690.914 662.778 689.434 664.055C687.954 665.332 686.74 666.888 685.861 668.635C684.982 670.381 684.456 672.283 684.312 674.233C684.169 676.183 684.411 678.142 685.024 679.998V679.998Z" fill="#3A0000"/>
<path d="M657.301 344.322C670.866 344.322 681.862 333.326 681.862 319.761C681.862 306.196 670.866 295.2 657.301 295.2C643.737 295.2 632.74 306.196 632.74 319.761C632.74 333.326 643.737 344.322 657.301 344.322Z" fill="#FFB8B8"/>
<path d="M635.796 655.452L647.181 580.307C647.303 579.505 647.699 578.77 648.303 578.228C648.906 577.686 649.679 577.37 650.489 577.335C651.299 577.299 652.097 577.546 652.745 578.034C653.394 578.521 653.852 579.219 654.043 580.007L671.381 651.619C671.655 652.716 672.328 653.672 673.269 654.298C674.211 654.924 675.352 655.176 676.469 655.004L724.294 647.318C724.929 647.216 725.534 646.98 726.069 646.625C726.604 646.27 727.057 645.804 727.398 645.259C727.738 644.715 727.958 644.104 728.042 643.467C728.127 642.83 728.074 642.183 727.887 641.568L665.526 435.968C665.349 435.384 665.328 434.763 665.465 434.168L667.541 425.168C667.77 424.192 667.664 423.169 667.242 422.26C666.821 421.351 666.107 420.61 665.214 420.154C656.722 415.821 635.214 406.813 618.983 416.68C618.457 417.001 618.001 417.427 617.643 417.93C617.286 418.433 617.034 419.004 616.904 419.607L568.188 648.577C568.056 649.2 568.057 649.843 568.192 650.465C568.326 651.088 568.591 651.674 568.969 652.186C569.347 652.699 569.83 653.125 570.385 653.437C570.94 653.749 571.554 653.939 572.188 653.996L630.945 659.258C631.079 659.27 631.212 659.276 631.345 659.276C632.421 659.274 633.461 658.887 634.277 658.186C635.092 657.485 635.63 656.514 635.793 655.451L635.796 655.452Z" fill="#35302D"/>
<path d="M673.587 302.408C671.736 301.294 670.093 299.866 668.732 298.188C668.061 297.34 667.618 296.333 667.449 295.265C667.279 294.197 667.387 293.103 667.762 292.088C669.003 289.35 672.69 288.488 675.548 289.417C678.406 290.346 680.613 292.589 682.701 294.75C684.54 296.65 686.432 298.642 687.301 301.141C688.17 303.64 687.725 306.809 685.555 308.326C683.425 309.814 680.363 309.205 678.315 307.607C676.267 306.009 674.999 303.637 673.79 301.337L673.587 302.408Z" fill="#2F2E41"/>
<path d="M681.906 295.41C682.042 288.49 689.93 283.527 696.743 284.754C703.556 285.981 708.792 291.789 711.413 298.195C716.951 311.73 712.794 327.174 707.458 340.795C702.122 354.416 695.518 368.234 696.297 382.838C696.824 390.731 699.473 398.336 703.964 404.849C708.455 411.361 714.622 416.54 721.812 419.838C714.124 423.323 704.934 419.723 698.473 414.29C684.125 402.225 678.587 380.744 685.312 363.246C688.629 354.615 694.475 347.231 699.039 339.19C703.603 331.149 706.952 321.672 704.595 312.731C702.238 303.79 692.21 296.552 683.637 300.011L681.906 295.41Z" fill="#412E2E"/>
<path d="M655.828 330.66C657.969 327.042 660.128 322.292 656.216 319.129C655.365 318.473 654.392 317.993 653.353 317.718C652.314 317.443 651.23 317.379 650.166 317.529C645.754 318.061 640.949 318.28 636.678 316.677C635.076 316.126 633.602 315.258 632.342 314.126C631.082 312.994 630.062 311.62 629.343 310.086C627.143 304.862 629.899 298.514 634.508 295.212C637.328 293.265 640.66 292.194 644.086 292.134C647.512 292.073 650.879 293.025 653.766 294.871C659.736 292.234 666.979 293.407 672.403 297.037C677.827 300.667 681.538 306.48 683.554 312.687C685.411 318.03 685.731 323.787 684.477 329.302C683.468 333.139 681.549 336.676 678.883 339.614C676.217 342.553 672.882 344.805 669.161 346.181C667.712 346.753 666.138 346.934 664.596 346.705C663.055 346.477 661.601 345.848 660.379 344.881C660.379 344.881 656.994 341.926 655.935 338.367C655.12 335.63 654.685 332.593 655.828 330.66Z" fill="#412E2E"/>
<path d="M582.966 352.576C583.089 353.116 583.169 353.664 583.205 354.216L626.162 378.998L636.603 372.987L647.734 387.559L630.284 399.997C628.874 401.002 627.176 401.523 625.445 401.481C623.714 401.438 622.044 400.836 620.684 399.763L576.384 364.817C574.385 365.558 572.207 365.672 570.141 365.145C568.074 364.617 566.218 363.473 564.817 361.865C563.417 360.257 562.54 358.26 562.302 356.141C562.065 354.022 562.478 351.88 563.487 350.002C564.497 348.123 566.054 346.596 567.952 345.625C569.85 344.653 571.999 344.282 574.113 344.561C576.227 344.841 578.206 345.757 579.787 347.189C581.367 348.621 582.474 350.5 582.96 352.576H582.966Z" fill="#FFB8B8"/>
<path d="M627.599 380.172L641.483 398.166C641.878 398.677 642.379 399.098 642.951 399.398C643.523 399.699 644.153 399.873 644.798 399.908C645.443 399.944 646.088 399.84 646.69 399.603C647.291 399.367 647.835 399.004 648.283 398.539L664 382.218C666.66 380.239 668.424 377.284 668.905 374.004C669.386 370.724 668.544 367.387 666.565 364.727C664.586 362.068 661.631 360.304 658.351 359.823C655.071 359.342 651.734 360.183 649.075 362.162C648.939 362.264 648.805 362.368 648.673 362.474L628.961 373.496C628.397 373.812 627.907 374.246 627.526 374.768C627.144 375.29 626.88 375.888 626.75 376.521C626.621 377.155 626.629 377.809 626.775 378.439C626.921 379.069 627.201 379.66 627.596 380.172L627.599 380.172Z" fill="#FCCB1C"/>
<path d="M123.701 423.057C123.211 423.281 122.739 423.544 122.29 423.844L77.4383 404.701L75.8383 392.886L57.9163 392.776L58.9753 419.876L118.175 435.534C118.3 435.945 118.45 436.349 118.623 436.742C119.479 438.568 120.856 440.101 122.58 441.148C124.304 442.195 126.299 442.708 128.315 442.625C130.33 442.541 132.276 441.864 133.907 440.679C135.539 439.493 136.784 437.852 137.486 435.961C138.188 434.07 138.316 432.013 137.853 430.05C137.39 428.087 136.357 426.304 134.885 424.926C133.412 423.548 131.565 422.635 129.575 422.303C127.586 421.971 125.543 422.235 123.702 423.06L123.701 423.057Z" fill="#D9A080"/>
<path d="M51.3985 668.616H63.6585L69.4905 621.328H51.3965L51.3985 668.616Z" fill="#D9A080"/>
<path d="M72.4153 665.113H48.7712V679.995H87.3022C87.3022 676.047 85.7338 672.26 82.942 669.468C80.1501 666.676 76.3635 665.108 72.4153 665.108H72.4152L72.4153 665.113Z" fill="#2F2E41"/>
<path d="M3.71826 665.152L15.9183 666.352L26.3593 619.864L8.35226 618.095L3.71826 665.152Z" fill="#D9A080"/>
<path d="M24.9847 663.729L1.45892 661.412L0 676.224L38.3373 680C38.5289 678.055 38.3355 676.091 37.7681 674.22C37.2007 672.35 36.2705 670.61 35.0305 669.099C33.7905 667.588 32.265 666.336 30.5412 665.414C28.8174 664.493 26.9289 663.92 24.9837 663.729L24.9847 663.729Z" fill="#2F2E41"/>
<path d="M47.9853 342.73C61.55 342.73 72.5463 331.734 72.5463 318.169C72.5463 304.604 61.55 293.608 47.9853 293.608C34.4207 293.608 23.4243 304.604 23.4243 318.169C23.4243 331.734 34.4207 342.73 47.9853 342.73Z" fill="#D9A080"/>
<path d="M66.3984 659.053C67.4524 659.056 68.4734 658.686 69.2812 658.009C70.089 657.332 70.6317 656.391 70.8134 655.353C77.1544 620.134 97.9014 504.953 98.3974 501.76C98.4086 501.687 98.4139 501.612 98.4134 501.538V492.95C98.4143 492.637 98.3167 492.332 98.1344 492.078L95.3944 488.24C95.2642 488.055 95.0933 487.903 94.895 487.795C94.6967 487.686 94.4762 487.625 94.2504 487.615C78.6284 486.883 27.4664 484.736 24.9944 487.824C22.5124 490.924 23.3944 500.331 23.5944 502.184L23.5844 502.377L0.59942 649.377C0.419371 650.55 0.708241 651.746 1.40351 652.707C2.09878 653.668 3.14452 654.316 4.31442 654.512L18.6704 656.877C19.7396 657.049 20.8349 656.831 21.7571 656.263C22.6793 655.696 23.3671 654.816 23.6954 653.784C28.1354 639.596 43.0244 591.866 48.1844 573.397C48.2174 573.281 48.2914 573.18 48.3928 573.114C48.4941 573.049 48.6159 573.022 48.7356 573.039C48.8552 573.055 48.9648 573.115 49.0438 573.207C49.1228 573.298 49.166 573.415 49.1654 573.536C48.9074 591.142 48.2844 636.059 48.0654 651.573L48.0424 653.244C48.0329 654.375 48.4481 655.469 49.206 656.309C49.9638 657.149 51.0092 657.674 52.1354 657.78L65.9784 659.034C66.118 659.047 66.2582 659.054 66.3984 659.053V659.053Z" fill="#740000"/>
<path d="M63.5734 352.388C67.8594 354.936 70.4244 359.618 71.8964 364.388C74.6211 373.209 76.2612 382.329 76.7804 391.547L78.3364 419.147L97.5914 492.317C80.9024 506.438 71.2764 503.228 48.8104 491.678C26.3444 480.128 23.7784 495.529 23.7784 495.529L19.2864 433.271L12.8684 365.239C14.3093 363.504 15.9402 361.936 17.7304 360.565C23.6626 355.951 30.5647 352.744 37.9165 351.185C45.2684 349.626 52.8781 349.756 60.1724 351.565L63.5734 352.388Z" fill="#E6E6E6"/>
<path d="M69.8273 437.834C69.3097 438.028 68.8081 438.262 68.3273 438.534L23.9773 416.334L23.2413 404.308L4.94728 403.047L3.96729 430.46L63.2333 450.06C63.7168 452.137 64.8212 454.017 66.3996 455.451C67.978 456.885 69.9556 457.804 72.0692 458.086C74.1828 458.369 76.3323 458.001 78.2317 457.032C80.1311 456.063 81.6904 454.538 82.7021 452.661C83.7139 450.784 84.1301 448.643 83.8954 446.524C83.6608 444.404 82.7864 442.407 81.3885 440.796C79.9907 439.186 78.1357 438.039 76.0702 437.509C74.0048 436.979 71.8269 437.09 69.8263 437.828L69.8273 437.834Z" fill="#D9A080"/>
<path d="M13.1882 365.545C2.27725 369.396 0.354248 411.119 0.354248 411.119C13.1912 404.059 28.5952 415.612 28.5952 415.612C28.5952 415.612 31.8042 404.7 35.6552 390.58C36.8181 386.608 36.9572 382.407 36.0595 378.367C35.1619 374.327 33.2567 370.58 30.5212 367.474C30.5212 367.474 24.1003 361.692 13.1882 365.545Z" fill="#E6E6E6"/>
<path d="M25.9675 324.665C29.0275 322.217 33.2025 326.665 33.2025 326.665L35.6505 304.634C35.6505 304.634 50.9504 306.467 60.7444 304.022C70.5384 301.577 72.0674 312.897 72.0674 312.897C72.5723 308.325 72.6747 303.717 72.3734 299.126C71.7614 293.618 63.8055 288.109 49.7285 284.437C35.6515 280.765 28.3075 296.678 28.3075 296.678C18.5095 301.573 22.9035 327.113 25.9675 324.665Z" fill="#2F2E41"/>
</svg>
